<svg width="687" height="634" viewBox="0 0 687 634" fill="none" xmlns="http://www.w3.org/2000/svg">
<g opacity="0.25">
<rect width="696" height="846.605" transform="translate(0 0.607056)" fill="white"/>
<path d="M376.132 540.022C380.942 542.424 394.143 534.148 402.963 524.644C411.782 515.14 426.586 501.03 440.617 499.551C454.648 498.072 464.48 503.349 467.803 506.039C471.127 508.729 470.434 516.207 466.746 517.453C463.058 518.7 444.937 525.754 436.941 534.937C428.945 544.121 408.193 583.879 404.496 589.491C400.801 595.103 360.601 643.382 355.368 648.454C350.134 653.527 367.123 847.212 367.123 847.212L241.175 835.544C241.175 835.544 258.139 673.862 257.496 659.373C256.854 644.884 244.712 630.263 240.478 615.976C236.244 601.69 229.103 550.217 227.624 536.186C226.145 522.155 225.024 508.555 228.114 500.902C231.205 493.249 239.084 489.613 243.02 489.977C246.956 490.342 252.852 495.255 252.852 495.255C252.852 495.255 254.231 484.664 258.896 477.157C263.561 469.65 270.973 466.764 276.484 467.274C281.994 467.785 289.282 474.811 289.282 474.811C289.282 474.811 290.981 465.044 294.064 461.757C297.148 458.471 311.288 455.81 315.865 457.822C320.442 459.835 327.832 470.046 331.542 477.139C331.542 477.139 337.724 440.397 339.292 423.473C340.861 406.548 341.444 400.251 345.971 389.953C350.497 379.654 361.511 363.605 366.774 362.504C372.036 361.404 380.549 363.781 380.14 372.476C379.732 381.172 373.281 395.068 372.799 404.551C372.317 414.034 368.968 480.209 368.304 491.66C367.643 503.111 369.303 536.61 376.132 540.022Z" fill="#FFC8B6"/>
<path d="M331.552 477.139C333.112 486.017 328.977 517.788 329.137 528.918C329.297 540.048 328.91 557.081 318.778 559.318C308.647 561.556 301.14 556.89 299.15 548.37C297.161 539.849 288.687 494.207 289.292 474.812" stroke="#484F6B" stroke-width="1.13079" stroke-miterlimit="10"/>
<path d="M252.867 495.256C255.425 506.21 270.598 548.107 273.775 552.371C276.952 556.635 289.107 566.402 300.563 552.226" stroke="#484F6B" stroke-width="1.13079" stroke-miterlimit="10"/>
<path d="M228.592 521.588C228.592 521.588 231.274 522.63 233.592 527.609C235.91 532.587 249.454 553.492 255.112 556.696C260.77 559.899 270.564 559.129 273 551.063" stroke="#484F6B" stroke-width="1.13079" stroke-miterlimit="10"/>
<path d="M232.373 549.329C232.373 549.329 239.585 546.027 249.179 550.885" stroke="#484F6B" stroke-width="1.13079" stroke-miterlimit="10"/>
<path d="M360.463 550.719C360.463 550.719 314.697 579.583 303.536 599.588C292.374 619.593 284.955 645.899 284.955 645.899" stroke="#484F6B" stroke-width="1.13079" stroke-miterlimit="10"/>
<path d="M448.159 341.925C503.464 286.62 503.464 196.952 448.159 141.647C392.853 86.3419 303.186 86.3419 247.881 141.647C192.576 196.952 192.576 286.62 247.881 341.925C303.186 397.23 392.853 397.23 448.159 341.925Z" fill="#FF7A00"/>
<path opacity="0.4" d="M447.887 296.985C483.275 261.597 483.275 204.221 447.887 168.833C412.498 133.445 355.122 133.445 319.734 168.833C284.346 204.221 284.346 261.597 319.734 296.985C355.123 332.373 412.498 332.373 447.887 296.985Z" fill="#EDB332"/>
<mask id="mask0_1_245" style="mask-type:luminance" maskUnits="userSpaceOnUse" x="206" y="100" width="284" height="284">
<path d="M448.161 341.925C503.467 286.62 503.467 196.952 448.161 141.647C392.856 86.342 303.189 86.342 247.884 141.647C192.579 196.952 192.579 286.62 247.884 341.925C303.189 397.23 392.856 397.23 448.161 341.925Z" fill="white"/>
</mask>
<g mask="url(#mask0_1_245)">
<path d="M462.785 331.833C493.981 280.302 471.523 195.337 379.932 150.282C315.672 118.671 255.259 127.857 230.635 151.2" stroke="#484F6B" stroke-width="1.5078" stroke-miterlimit="10"/>
<path d="M421.89 109.352C421.89 109.352 401.123 121.818 369.337 168.242C337.55 214.667 274.774 345.718 278.949 380.013" stroke="#484F6B" stroke-width="1.5078" stroke-miterlimit="10"/>
<path d="M484.895 184.785C484.895 184.785 438.681 132.948 411.154 168.968C383.626 204.988 413.232 267.593 405.031 315.743C397.656 359.038 374.449 385.109 374.449 385.109" stroke="#484F6B" stroke-width="1.5078" stroke-miterlimit="10"/>
<path d="M331.918 95.8875C331.918 95.8875 366.681 109.623 353.632 139.458C340.583 169.292 289.907 174.119 249.986 211.963C210.065 249.806 209.782 287.617 209.782 287.617" stroke="#484F6B" stroke-width="1.5078" stroke-miterlimit="10"/>
</g>
<path d="M508.1 224.241C508.1 224.241 510.125 224.676 513.898 225.604C517.66 226.562 523.206 227.936 530.041 230.437C533.446 231.711 537.2 233.223 541.056 235.399C542.971 236.503 544.934 237.749 546.752 239.375C547.664 240.18 548.538 241.087 549.294 242.14C550.049 243.187 550.692 244.394 551.035 245.75C551.111 246.09 551.172 246.438 551.226 246.787C551.242 247.157 551.3 247.459 551.275 247.89C551.248 248.221 551.264 248.508 551.202 248.878C551.132 249.245 551.081 249.638 550.98 249.987C550.61 251.389 549.9 252.675 549.036 253.809C547.3 256.092 545.034 257.902 542.611 259.493C537.738 262.674 532.144 265.019 526.258 267.162C514.44 271.367 501.245 274.514 487.2 277.133C473.15 279.75 458.227 281.857 442.738 283.46C427.25 285.072 411.205 286.314 394.878 287.057C378.552 287.809 361.952 288.176 345.352 288.158C328.751 288.1 312.152 287.647 295.83 286.803C287.668 286.388 279.577 285.856 271.593 285.19C263.608 284.54 255.728 283.778 247.989 282.911C232.512 281.187 217.603 278.958 203.581 276.157C189.573 273.338 176.399 270.002 164.736 265.278C161.827 264.084 159.021 262.787 156.364 261.314C153.71 259.847 151.201 258.184 149.03 256.152C147.961 255.117 146.979 253.985 146.202 252.7C145.427 251.422 144.876 249.96 144.758 248.447L144.728 247.881L144.722 247.74C144.718 247.743 144.718 247.576 144.723 247.549L144.742 247.3L144.779 246.803C144.791 246.637 144.841 246.424 144.871 246.239L144.985 245.666L145.147 245.142C145.244 244.789 145.39 244.461 145.535 244.134C146.122 242.83 146.945 241.716 147.834 240.735C148.723 239.749 149.698 238.903 150.696 238.141C151.684 237.364 152.716 236.702 153.731 236.061C155.783 234.817 157.84 233.784 159.844 232.872C163.86 231.06 167.667 229.724 171.124 228.602C178.049 226.383 183.619 225.133 187.403 224.26C189.301 223.85 190.757 223.537 191.738 223.325C192.72 223.121 193.227 223.016 193.227 223.016C193.227 223.016 192.725 223.143 191.752 223.386C190.782 223.638 189.341 224.011 187.462 224.499C183.715 225.507 178.229 227.049 171.407 229.436C168.008 230.656 164.272 232.099 160.378 234.002C158.436 234.959 156.455 236.032 154.511 237.295C152.596 238.579 150.652 240.021 149.096 241.851C148.32 242.76 147.638 243.76 147.189 244.849C147.079 245.122 146.964 245.393 146.9 245.677L146.781 246.099L146.716 246.499C146.697 246.639 146.661 246.748 146.653 246.914L146.631 247.412L146.62 247.661L146.636 247.829L146.673 248.264C146.923 250.61 148.534 252.764 150.509 254.552C152.539 256.324 154.926 257.863 157.505 259.208C160.081 260.562 162.831 261.762 165.694 262.864C171.425 265.061 177.598 266.877 184.049 268.504C190.503 270.126 197.245 271.565 204.217 272.842C218.162 275.397 233.012 277.347 248.414 278.952C263.82 280.548 279.799 281.627 296.048 282.442C312.299 283.233 328.83 283.623 345.361 283.639C361.893 283.71 378.426 283.397 394.682 282.699C410.936 281.979 426.922 280.995 442.342 279.509C457.758 278.021 472.626 276.204 486.608 273.823C500.576 271.416 513.713 268.588 525.411 264.721C531.235 262.76 536.732 260.542 541.447 257.667C543.793 256.233 545.944 254.594 547.519 252.642C548.308 251.673 548.927 250.611 549.255 249.499C549.344 249.227 549.376 248.972 549.448 248.709C549.51 248.445 549.51 248.083 549.545 247.776C549.572 247.567 549.531 247.233 549.531 246.967C549.494 246.688 549.456 246.408 549.403 246.132C548.902 243.914 547.419 241.99 545.769 240.443C544.116 238.869 542.256 237.6 540.425 236.47C536.733 234.233 533.062 232.619 529.725 231.254C523.01 228.594 517.555 226.931 513.834 225.84C510.106 224.758 508.1 224.241 508.1 224.241Z" fill="#FFC84E"/>
<path d="M516.81 241.546C516.81 241.546 516.147 241.832 514.904 242.368C514.282 242.633 513.514 242.959 512.612 243.343C511.703 243.713 510.686 244.203 509.486 244.604C508.293 245.032 506.973 245.508 505.535 246.025C504.814 246.281 504.063 246.547 503.284 246.825C502.497 247.069 501.682 247.322 500.84 247.582C499.153 248.1 497.357 248.65 495.464 249.23C493.562 249.781 491.542 250.272 489.443 250.832C488.392 251.107 487.32 251.388 486.226 251.673C485.126 251.929 484.006 252.191 482.867 252.456C480.586 252.978 478.224 253.513 475.79 254.023C470.911 254.977 465.771 256.052 460.409 256.866C457.733 257.306 455.014 257.773 452.25 258.15C449.489 258.553 446.693 258.955 443.871 259.326C438.217 259.967 432.48 260.718 426.724 261.246C423.845 261.502 420.967 261.758 418.099 262.013C415.229 262.226 412.37 262.438 409.534 262.649C408.115 262.751 406.703 262.853 405.297 262.955C403.89 263.025 402.489 263.095 401.097 263.164C398.314 263.302 395.564 263.439 392.86 263.573C387.449 263.792 382.215 263.924 377.254 264.025C372.291 264.095 367.6 264.123 363.27 264.11C358.939 264.075 354.97 263.995 351.454 263.921C347.937 263.872 344.871 263.689 342.349 263.596C337.301 263.379 334.421 263.201 334.421 263.201C334.421 263.201 337.303 262.984 342.342 262.697C347.376 262.411 354.569 262.003 363.2 261.513C367.511 261.24 372.179 260.915 377.116 260.651C382.049 260.315 387.252 259.961 392.634 259.596C398.008 259.173 403.562 258.737 409.205 258.294C412.024 258.058 414.867 257.821 417.719 257.583C420.568 257.304 423.428 257.025 426.288 256.746C432.017 256.274 437.719 255.58 443.345 254.995C448.949 254.256 454.494 253.731 459.818 252.938C465.158 252.236 470.298 251.446 475.181 250.715C477.612 250.299 479.977 249.895 482.265 249.504C483.411 249.312 484.537 249.124 485.642 248.94C486.74 248.726 487.819 248.515 488.875 248.309C490.988 247.894 493.014 247.497 494.941 247.12C496.858 246.698 498.676 246.297 500.386 245.921C501.241 245.73 502.069 245.545 502.867 245.366C503.657 245.163 504.418 244.968 505.15 244.78C506.62 244.408 507.969 244.067 509.188 243.759C511.622 243.105 513.515 242.493 514.816 242.124C516.116 241.747 516.81 241.546 516.81 241.546Z" fill="#FFC84E"/>
<path d="M438.06 299.759C438.06 299.759 437.018 299.902 435.064 300.171C433.109 300.433 430.246 300.85 426.595 301.316C422.943 301.777 418.518 302.413 413.422 302.973C408.315 303.458 402.549 304.008 396.251 304.553C394.676 304.692 393.068 304.834 391.43 304.98C390.611 305.051 389.784 305.122 388.949 305.194C388.115 305.245 387.272 305.296 386.422 305.348C383.022 305.539 379.507 305.735 375.894 305.938C372.279 306.136 368.565 306.34 364.769 306.549C362.871 306.674 360.952 306.728 359.012 306.761C357.073 306.805 355.116 306.848 353.141 306.892C349.193 306.981 345.179 307.07 341.115 307.161C339.082 307.207 337.038 307.252 334.983 307.298C332.88 307.316 330.857 307.273 328.776 307.264C324.637 307.229 320.465 307.194 316.278 307.159C314.183 307.142 312.085 307.124 309.986 307.106C307.88 307.044 305.772 306.981 303.665 306.918C299.45 306.759 295.234 306.599 291.035 306.44C288.936 306.353 286.84 306.294 284.753 306.185C282.668 306.055 280.59 305.926 278.52 305.797C270.238 305.288 262.089 304.774 254.225 303.956C250.292 303.577 246.421 303.236 242.639 302.842C240.746 302.674 238.881 302.411 237.037 302.176C235.194 301.938 233.372 301.702 231.576 301.47C227.984 301.002 224.491 300.548 221.112 300.108C217.742 299.59 214.497 299.011 211.378 298.498C208.261 297.972 205.274 297.468 202.434 296.988C199.606 296.437 196.936 295.832 194.422 295.309C189.4 294.223 185.009 293.372 181.463 292.331C177.898 291.387 175.113 290.597 173.21 290.08C171.31 289.558 170.297 289.279 170.297 289.279C170.297 289.279 171.331 289.475 173.27 289.842C175.205 290.214 178.044 290.758 181.657 291.452C185.242 292.251 189.686 292.783 194.733 293.606C197.262 293.987 199.944 294.44 202.785 294.831C205.633 295.179 208.628 295.546 211.752 295.928C214.877 296.303 218.124 296.737 221.495 297.105C224.872 297.431 228.363 297.768 231.952 298.114C233.746 298.288 235.564 298.465 237.405 298.644C239.246 298.821 241.106 299.025 242.996 299.133C246.774 299.382 250.628 299.698 254.55 299.986C258.472 300.266 262.453 300.634 266.5 300.788C270.543 300.98 274.634 301.195 278.756 301.435C280.817 301.551 282.886 301.667 284.962 301.783C287.038 301.878 289.121 301.923 291.207 301.996C295.379 302.13 299.567 302.264 303.755 302.398C305.85 302.474 307.944 302.55 310.037 302.626C312.137 302.657 314.235 302.688 316.329 302.719C320.516 302.78 324.688 302.841 328.826 302.902C330.887 302.929 332.939 302.957 334.981 302.983C337.028 302.976 339.065 302.969 341.088 302.962C345.137 302.949 349.137 302.934 353.071 302.92C355.039 302.914 356.99 302.907 358.923 302.9C360.855 302.895 362.77 302.902 364.662 302.838C368.449 302.749 372.154 302.661 375.76 302.576C382.972 302.386 389.801 302.33 396.082 301.973C402.368 301.676 408.139 301.455 413.259 301.258C418.375 300.936 422.835 300.656 426.509 300.425C430.181 300.184 433.072 300.045 435.041 299.927C437.01 299.818 438.06 299.759 438.06 299.759Z" fill="#FFC84E"/>
<path d="M93.5794 329.599L63.4473 213.186L48.5718 245.274L23.3945 180.456L44.9708 286.722L61.9048 250.537L93.5794 329.599Z" fill="#DB545D"/>
<path d="M588.143 464.657L603.443 461.274L589.192 451.67L591.114 427.854L579.603 445.209L563.984 434.683L572.969 455.21L563.016 470.214L578.079 466.882L586.424 485.947L588.143 464.657Z" fill="#FFC84E"/>
<path d="M169.384 74.5821L180.824 57.9319L165.682 62.9107L158.893 41.5082L155.494 66.2611L138.898 71.7162L153.535 80.524L150.596 101.924L161.859 85.5332L175.453 93.7122L169.384 74.5821Z" fill="#FFC84E"/>
</g>
</svg>
